<?xml version="1.0" standalone="no"?>
<!DOCTYPE svg PUBLIC "-//W3C//DTD SVG 20010904//EN"
 "http://www.w3.org/TR/2001/REC-SVG-20010904/DTD/svg10.dtd">
<svg version="1.0" xmlns="http://www.w3.org/2000/svg"
 width="10.000000pt" height="7.000000pt" viewBox="0 0 10.000000 7.000000"
 preserveAspectRatio="xMidYMid meet">
<metadata>
Created by potrace 1.16, written by Peter Selinger 2001-2019
</metadata>
<g transform="translate(0.000000,7.000000) scale(0.000500,-0.000412)"
fill="#000000" stroke="none">
<path d="M9850 15609 c-340 -27 -384 -32 -580 -60 -95 -14 -287 -52 -365 -74
-120 -32 -434 -131 -490 -155 -11 -4 -45 -17 -75 -28 -95 -35 -475 -185 -485
-192 -5 -4 -30 -15 -55 -24 -117 -46 -464 -217 -522 -257 -14 -11 -29 -19 -32
-19 -4 0 -46 -27 -94 -59 -98 -66 -186 -155 -213 -217 -23 -50 -39 -154 -39
-250 0 -187 -103 -412 -275 -599 -73 -79 -159 -208 -193 -287 -23 -55 -27 -78
-28 -173 -1 -133 -15 -168 -108 -259 -123 -123 -255 -218 -580 -421 -469 -293
-593 -394 -661 -537 -114 -240 -140 -1069 -38 -1226 23 -36 53 -131 53 -167 0
-53 -56 -152 -109 -190 -58 -43 -166 -97 -250 -125 -99 -33 -150 -63 -223
-129 -139 -128 -242 -339 -322 -659 -38 -150 -61 -266 -76 -382 -57 -450 -97
-647 -166 -820 -22 -56 -34 -73 -142 -185 -76 -79 -199 -214 -255 -279 -10
-12 -31 -34 -46 -51 -55 -61 -189 -242 -230 -310 -135 -225 -119 -437 59 -783
114 -222 176 -323 334 -552 161 -231 203 -293 231 -340 17 -28 76 -123 131
-213 56 -89 132 -214 169 -277 89 -151 170 -254 313 -397 124 -125 170 -167
242 -223 24 -19 51 -41 59 -48 21 -20 159 -112 168 -112 4 0 19 -10 33 -21 14
-11 66 -48 115 -81 114 -78 277 -208 333 -266 38 -39 43 -49 38 -76 -11 -56
-65 -153 -147 -263 -161 -214 -239 -342 -239 -390 0 -29 25 -54 105 -105 60
-39 320 -171 435 -221 19 -8 61 -27 93 -41 32 -14 60 -26 62 -26 2 0 53 -21
112 -46 314 -133 438 -199 515 -272 81 -77 100 -124 109 -278 15 -273 56 -298
754 -464 131 -31 189 -46 235 -60 14 -4 45 -13 70 -20 189 -53 343 -107 444
-156 101 -48 110 -57 95 -86 -37 -71 -169 -213 -304 -328 -111 -94 -296 -274
-330 -320 -23 -31 -35 -58 -33 -72 3 -22 7 -23 93 -23 99 0 169 10 350 50 155
33 264 38 294 11 39 -35 27 -110 -50 -318 -46 -123 -50 -181 -12 -186 35 -5
190 74 288 147 28 21 122 87 210 147 406 275 766 573 879 725 78 105 78 106 6
364 -72 257 -72 262 6 296 65 29 122 37 369 54 259 17 1191 20 1427 5 530 -34
596 -98 467 -450 -22 -58 -42 -127 -45 -155 -15 -137 89 -277 396 -533 19 -16
64 -54 100 -83 69 -58 166 -135 330 -264 56 -44 137 -108 179 -142 137 -108
289 -203 326 -203 62 0 60 44 -16 248 -53 144 -62 194 -36 219 32 32 140 42
460 43 180 0 307 4 307 9 0 5 -30 32 -67 60 -38 28 -95 72 -128 98 -157 123
-336 260 -475 363 -77 57 -209 157 -237 179 l-33 26 63 18 c117 34 267 75 322
87 22 5 74 17 115 28 41 11 120 32 175 46 55 15 131 35 170 46 38 11 88 25
110 32 22 6 54 15 70 19 17 5 64 18 105 29 395 107 548 158 695 231 90 45 107
62 113 114 6 61 -16 95 -62 95 -24 0 -42 8 -64 31 -45 46 -47 77 -9 118 59 61
216 158 417 257 121 59 341 155 520 226 41 16 91 36 110 45 19 8 44 19 55 23
11 4 36 15 55 23 19 9 82 34 140 57 58 23 123 50 145 60 22 10 76 32 120 50
44 17 84 35 89 40 6 6 -10 37 -37 77 -128 188 -253 369 -356 514 -62 88 -112
161 -110 163 31 22 367 298 405 331 7 6 31 26 55 45 193 157 632 612 799 830
19 25 39 50 45 56 40 44 311 395 375 487 28 39 73 104 101 142 71 99 201 297
292 444 67 111 216 405 243 483 14 40 29 95 34 121 9 60 -4 209 -26 291 -41
153 -167 356 -280 451 -32 28 -61 53 -64 56 -11 13 -162 111 -219 142 -142 76
-226 161 -256 261 -23 75 -33 180 -45 471 -31 771 -85 1016 -263 1204 -50 51
-188 146 -272 185 -200 94 -299 150 -353 200 -32 29 -62 89 -62 124 0 40 50
136 106 202 57 68 117 189 146 295 19 69 22 104 21 255 -2 436 -74 652 -280
840 -68 62 -255 189 -368 250 -44 23 -109 58 -145 78 -36 19 -102 57 -148 83
-45 27 -85 49 -88 49 -9 0 -189 123 -239 164 -63 52 -81 71 -116 125 -40 62
-38 105 7 189 32 59 35 73 31 120 -7 64 -53 166 -109 242 -59 79 -147 188
-189 235 -118 129 -214 256 -255 335 -51 100 -39 163 62 330 44 74 68 151 60
194 -10 51 -82 124 -199 203 -158 107 -222 143 -517 291 -203 102 -260 129
-355 168 -22 9 -60 25 -85 36 -25 11 -60 26 -77 34 -18 8 -48 20 -65 28 -270
118 -661 246 -928 305 -30 7 -73 16 -95 21 -37 8 -92 18 -220 40 -27 5 -86 14
-130 20 -44 6 -107 15 -140 20 -33 5 -107 14 -165 20 -58 6 -141 15 -185 20
-78 9 -237 21 -543 40 -181 12 -1091 11 -1242 -1z m1179 -969 c302 -27 515
-56 751 -100 25 -5 72 -13 105 -19 33 -6 119 -23 190 -37 72 -15 141 -28 155
-31 73 -13 395 -98 485 -128 235 -78 405 -186 405 -257 0 -31 -27 -61 -93
-103 -50 -31 -87 -90 -87 -136 0 -137 158 -279 641 -571 58 -36 138 -120 155
-163 20 -55 12 -95 -47 -225 -61 -136 -72 -236 -34 -310 17 -32 79 -97 131
-135 21 -17 41 -32 44 -36 13 -14 135 -91 230 -144 58 -32 121 -67 140 -78 42
-24 133 -73 250 -135 47 -25 348 -177 670 -339 322 -162 586 -296 587 -297 2
-2 -63 -74 -156 -171 -216 -227 -302 -341 -333 -437 -53 -174 23 -679 137
-908 65 -129 147 -197 380 -311 129 -63 261 -143 300 -183 34 -35 63 -80 83
-132 40 -100 79 -501 89 -895 7 -262 -3 -380 -43 -517 -28 -96 -51 -144 -144
-298 -118 -196 -282 -614 -364 -924 -43 -165 -132 -347 -212 -436 -28 -31
-110 -91 -147 -108 -137 -63 -357 -62 -587 1 -30 8 -68 18 -85 23 -32 8 -58
17 -90 30 -11 4 -47 18 -80 30 -88 32 -123 47 -228 94 -32 14 -60 26 -64 26
-7 0 -222 108 -278 140 -107 60 -136 78 -220 133 -321 212 -578 464 -678 663
-20 39 -41 98 -48 132 -11 54 -11 68 4 116 35 109 178 198 339 211 47 4 94 12
104 19 36 27 13 107 -65 226 -22 35 -48 83 -57 107 -16 42 -16 45 3 71 39 52
151 96 441 173 39 10 105 28 145 38 149 40 194 52 277 77 265 79 484 169 525
214 47 53 281 144 550 214 125 33 200 62 243 93 27 21 33 31 30 56 -3 27 -11
36 -51 56 -104 51 -292 76 -707 91 -505 18 -725 41 -882 90 -74 23 -75 24
-111 72 -48 65 -89 98 -172 138 -77 37 -189 70 -241 70 -40 0 -84 -28 -84 -53
0 -22 -30 -79 -53 -101 -35 -35 -175 -112 -264 -147 -13 -5 -33 -13 -45 -18
-61 -26 -276 -90 -398 -119 -84 -21 -328 -67 -477 -91 -265 -43 -286 -47 -523
-103 -108 -25 -198 -59 -245 -94 -77 -55 -92 -59 -240 -58 -144 0 -226 13
-354 54 -141 45 -217 98 -230 161 -4 18 -18 41 -34 53 -25 19 -42 21 -145 20
-193 -1 -352 -50 -508 -154 -41 -29 -78 -49 -82 -46 -3 4 2 22 11 41 22 47 21
67 -4 99 -58 73 -196 111 -724 197 -83 13 -246 46 -295 59 -272 74 -336 101
-423 178 -49 44 -103 79 -175 114 -92 45 -113 51 -186 55 -97 6 -152 -12 -162
-54 -6 -23 -1 -102 12 -201 8 -58 -10 -97 -53 -117 -89 -43 -142 -46 -843 -55
-653 -9 -821 -17 -959 -48 -128 -29 -6 -172 252 -295 206 -99 398 -161 637
-208 43 -8 150 -19 405 -39 186 -15 304 -32 395 -57 67 -19 120 -67 120 -110
0 -16 7 -38 15 -50 25 -35 112 -85 185 -104 39 -10 86 -26 105 -35 77 -36 125
-132 125 -246 0 -165 69 -238 222 -238 31 0 71 -6 90 -14 l34 -14 43 -186 c48
-204 48 -241 4 -276 -14 -11 -39 -20 -54 -20 -16 0 -39 -6 -52 -12 -45 -26
-147 -138 -175 -194 -19 -37 -56 -83 -99 -124 -99 -94 -119 -110 -234 -188
-57 -39 -115 -80 -129 -91 -14 -11 -28 -21 -31 -21 -4 0 -36 -17 -70 -38 -166
-101 -512 -281 -699 -365 -30 -13 -75 -34 -100 -45 -315 -145 -602 -216 -735
-181 -134 34 -227 126 -310 302 -54 115 -73 172 -125 367 -171 636 -283 942
-443 1204 -76 123 -102 187 -118 284 -12 72 -8 98 45 347 34 160 54 363 61
625 4 118 11 249 17 290 26 191 95 252 403 355 356 119 448 201 499 447 19 93
56 417 56 493 0 170 -68 326 -210 482 -111 121 -210 260 -210 295 0 29 51 60
311 191 262 132 517 264 656 338 40 21 107 57 150 80 43 23 101 54 128 69 28
15 77 42 110 60 33 18 80 44 105 58 25 13 74 40 110 60 36 20 103 58 150 85
47 27 99 58 116 67 56 32 157 95 226 141 89 58 113 102 106 197 -6 77 -41 161
-112 271 -26 40 -55 92 -63 116 -16 42 -16 44 8 92 34 65 123 138 354 291 333
220 565 425 565 501 0 21 -10 32 -56 60 -30 18 -60 43 -66 56 -48 106 166 216
612 314 115 25 136 30 180 40 25 6 72 15 105 21 33 7 78 15 100 20 22 5 69 14
105 20 36 6 85 15 110 20 25 5 81 14 125 20 44 6 107 15 140 20 62 9 194 23
350 38 131 13 519 14 654 2z m-3141 -5800 c49 -25 65 -39 81 -74 28 -58 26
-82 -9 -118 -26 -26 -36 -30 -65 -25 -41 7 -103 35 -129 59 -11 10 -23 18 -26
18 -11 0 -40 70 -40 98 0 76 83 94 188 42z m2362 -18 c29 -35 68 -125 89 -207
14 -52 14 -67 -2 -89 -12 -17 -17 -16 -83 14 -106 49 -186 80 -207 80 -17 0
-19 5 -15 44 9 79 70 176 122 196 33 12 65 -1 96 -38z m-1934 -193 c49 -98
113 -139 216 -139 27 0 68 4 91 10 23 5 80 18 127 29 47 11 112 21 145 23 76
4 79 -12 13 -62 -71 -53 -176 -81 -405 -107 -123 -15 -160 -15 -265 -4 -115
12 -188 28 -188 41 0 3 20 13 45 23 73 30 144 130 145 202 0 17 3 40 6 53 9
32 28 13 70 -69z m745 -499 c46 -5 127 -15 179 -21 52 -5 124 -14 160 -19 36
-5 101 -14 145 -20 44 -6 100 -15 125 -20 25 -5 77 -14 115 -21 39 -7 73 -15
77 -19 19 -15 -271 -176 -427 -238 -28 -11 -79 -33 -115 -49 -92 -42 -233 -89
-311 -104 -118 -22 -190 14 -245 124 -37 73 -29 102 57 188 96 98 93 136 -15
188 l-41 20 106 1 c58 0 144 -4 190 -10z m3554 -76 c12 -5 -1 -18 -49 -50 -36
-24 -68 -44 -71 -44 -4 0 -26 -13 -50 -30 -24 -16 -46 -30 -49 -30 -14 0 -46
-36 -46 -51 0 -13 15 -17 78 -22 93 -8 143 -21 174 -47 l23 -19 -21 -21 c-71
-73 -315 18 -380 142 -22 42 -17 73 18 107 53 51 116 70 245 70 61 1 119 -2
128 -5z m-1183 -820 c69 -48 168 -203 168 -264 0 -39 -24 -65 -82 -90 -83 -36
-147 -50 -228 -50 -172 0 -300 81 -300 190 0 67 126 157 300 214 95 31 97 31
142 0z m-1207 -8 c135 -24 216 -62 243 -113 26 -47 4 -153 -41 -201 -51 -55
-92 -67 -227 -66 -84 0 -143 6 -180 17 -30 9 -73 21 -95 27 -22 6 -49 15 -60
19 -11 5 -36 15 -55 22 -78 28 -216 97 -234 118 -18 20 -18 22 -1 41 32 36
170 94 280 119 148 34 249 38 370 17z m-1120 -426 c6 -5 44 -19 85 -33 41 -15
134 -47 205 -72 72 -25 155 -55 185 -65 30 -10 93 -33 140 -50 47 -18 94 -34
105 -37 11 -3 25 -9 30 -13 6 -4 19 -10 30 -13 11 -3 58 -19 105 -37 154 -57
524 -179 590 -194 85 -21 226 -20 285 0 25 8 73 32 105 53 66 43 139 73 220
91 70 15 241 8 335 -14 90 -21 164 -21 193 0 20 14 22 22 17 55 -7 38 -5 41
53 98 59 58 71 66 185 123 86 44 233 89 308 95 105 9 207 -20 390 -111 114
-57 305 -181 349 -226 3 -3 30 -25 60 -49 87 -70 201 -190 253 -268 61 -91
140 -171 175 -179 58 -12 123 -44 198 -97 274 -192 754 -663 859 -840 13 -24
29 -68 35 -98 22 -118 91 -218 275 -402 98 -98 126 -132 134 -164 22 -82 -17
-125 -189 -210 -63 -31 -124 -60 -135 -64 -11 -4 -50 -19 -86 -32 -86 -33
-287 -100 -514 -172 -99 -31 -191 -60 -205 -65 -14 -4 -43 -13 -65 -19 -22 -6
-71 -19 -110 -30 -171 -48 -485 -128 -590 -151 -33 -7 -73 -16 -90 -20 -85
-22 -397 -80 -560 -105 -55 -8 -125 -20 -155 -25 -86 -14 -304 -44 -435 -59
-259 -30 -345 -37 -745 -61 -337 -20 -845 -8 -1235 29 -201 20 -561 66 -785
101 -36 6 -112 17 -170 25 -58 9 -130 20 -160 26 -30 5 -80 14 -110 19 -30 5
-77 13 -105 19 -27 5 -76 14 -107 20 -114 22 -174 33 -213 41 -72 14 -199 40
-242 50 -24 6 -62 14 -85 19 -176 39 -547 127 -588 141 -14 4 -43 13 -65 19
-338 92 -516 150 -668 218 -81 35 -110 51 -312 172 -66 39 -124 73 -130 75
-13 4 -15 3 94 77 243 166 311 220 387 303 78 86 123 162 133 223 12 80 61
153 216 323 107 118 309 313 425 410 36 30 72 62 80 70 17 18 142 111 212 158
56 38 131 72 160 72 42 0 148 99 256 237 72 93 239 245 372 341 176 125 208
146 348 216 118 59 177 76 232 67 14 -2 30 -7 35 -11z"/>
<path d="M10760 14179 c-180 -49 -339 -108 -413 -151 -26 -15 -50 -28 -53 -28
-12 0 -184 -123 -239 -170 -104 -90 -193 -112 -290 -70 -92 39 -135 17 -156
-80 -14 -68 -6 -236 15 -305 18 -60 57 -104 97 -112 54 -11 50 -27 -36 -125
-69 -79 -118 -178 -145 -293 -67 -283 -66 -612 1 -839 12 -39 44 -112 71 -163
53 -99 60 -145 23 -151 -92 -14 -149 -103 -124 -194 16 -63 72 -85 132 -53 90
47 140 20 152 -81 11 -96 51 -170 146 -266 100 -102 161 -144 324 -226 113
-57 219 -91 373 -122 75 -14 264 -12 347 4 128 25 196 55 295 129 65 49 238
220 295 292 22 28 74 91 115 140 367 437 499 638 561 853 10 35 24 126 30 202
28 311 -32 611 -188 945 -149 317 -307 484 -474 501 -125 13 -251 79 -379 200
-98 94 -114 106 -180 137 -58 29 -75 32 -165 34 -55 1 -116 -2 -135 -8z m-347
-1505 c3 -3 -9 -21 -27 -39 -47 -46 -60 -105 -41 -180 20 -77 11 -90 -61 -81
-124 14 -234 93 -234 166 0 58 73 116 165 131 52 9 190 11 198 3z"/>
<path d="M10555 10585 c-149 -34 -247 -75 -292 -122 -97 -104 -80 -331 37
-486 117 -154 168 -313 205 -637 18 -161 30 -217 62 -289 49 -113 99 -153 191
-155 103 -2 120 51 132 414 15 450 43 609 139 770 49 81 55 101 47 155 -8 50
-57 120 -149 213 -76 77 -140 119 -209 138 -63 16 -84 16 -163 -1z m139 -155
c58 -28 110 -77 140 -135 28 -52 32 -84 15 -118 -29 -56 -103 -87 -207 -87
-58 0 -150 19 -178 38 -20 12 -64 84 -64 103 0 45 44 136 87 177 41 40 46 42
103 42 40 0 75 -7 104 -20z"/>
<path d="M7035 8473 c-96 -26 -20 -113 99 -113 50 0 61 4 87 29 33 33 34 40
15 66 -11 15 -29 19 -97 21 -46 2 -93 0 -104 -3z"/>
<path d="M9570 4077 c-56 -28 -28 -78 56 -103 40 -11 62 -13 90 -5 76 21 99
77 44 106 -36 18 -155 20 -190 2z"/>
<path d="M11333 4075 c-61 -26 -38 -66 57 -100 105 -37 232 53 140 100 -37 19
-153 19 -197 0z"/>
</g>
</svg>
